<svg width="192" height="64" viewBox="0 0 192 64" fill="none" xmlns="http://www.w3.org/2000/svg">
<path d="M173.596 53V38.9135H180.579C181.545 38.9135 182.39 39.0812 183.115 39.4166C183.853 39.752 184.43 40.2215 184.846 40.8253C185.261 41.4155 185.469 42.0997 185.469 42.8779C185.469 43.4547 185.322 43.9981 185.027 44.5079C184.745 45.0042 184.356 45.4268 183.859 45.7757C184.49 46.111 184.986 46.5471 185.349 47.0837C185.724 47.6203 185.912 48.2106 185.912 48.8546C185.912 49.6729 185.704 50.3974 185.288 51.0279C184.872 51.645 184.289 52.128 183.537 52.4768C182.786 52.8256 181.914 53 180.921 53H173.596ZM177.058 44.528H180.358C180.868 44.528 181.27 44.4005 181.565 44.1456C181.861 43.8907 182.008 43.5553 182.008 43.1395C182.008 42.7102 181.861 42.3748 181.565 42.1333C181.27 41.8784 180.868 41.7509 180.358 41.7509H177.058V44.528ZM177.058 50.1626H180.66C181.196 50.1626 181.619 50.0284 181.928 49.7601C182.25 49.4918 182.411 49.1296 182.411 48.6734C182.411 48.2173 182.25 47.8551 181.928 47.5868C181.619 47.3185 181.196 47.1843 180.66 47.1843H177.058V50.1626Z" fill="black"/>
<path d="M157.137 53L162.912 38.9135H166.877L172.571 53H168.829L167.541 49.5991H162.047L160.739 53H157.137ZM163.093 46.8422H166.514L164.824 42.3345L163.093 46.8422Z" fill="black"/>
<path d="M144.062 53.2616C142.684 53.2616 141.437 52.9477 140.321 52.3198C139.222 51.692 138.35 50.8374 137.705 49.7561C137.059 48.6573 136.737 47.4365 136.737 46.0936C136.737 44.7332 137.059 43.5124 137.705 42.4311C138.35 41.3498 139.222 40.4952 140.321 39.8674C141.437 39.2221 142.684 38.8994 144.062 38.8994C145.195 38.8994 146.277 39.1261 147.306 39.5796C148.335 40.0156 149.207 40.6435 149.922 41.4632L147.332 44.1577C146.844 43.5996 146.346 43.1985 145.841 42.9543C145.335 42.6927 144.777 42.5619 144.166 42.5619C143.556 42.5619 143.007 42.7189 142.518 43.0328C142.03 43.3293 141.646 43.7479 141.367 44.2885C141.088 44.8117 140.949 45.4134 140.949 46.0936C140.949 46.7563 141.088 47.358 141.367 47.8987C141.664 48.4219 142.065 48.8405 142.571 49.1544C143.076 49.4509 143.643 49.5991 144.271 49.5991C144.847 49.5991 145.379 49.477 145.867 49.2329C146.355 48.9887 146.826 48.6137 147.28 48.108L149.791 50.724C149.093 51.5263 148.239 52.1541 147.227 52.6076C146.216 53.0436 145.161 53.2616 144.062 53.2616Z" fill="black"/>
<path d="M130.518 53V39.161H134.756V53H130.518ZM132.637 37.8792C131.992 37.8792 131.442 37.6524 130.989 37.199C130.535 36.7455 130.309 36.1962 130.309 35.5509C130.309 34.9056 130.535 34.3562 130.989 33.9027C131.442 33.4493 131.992 33.2226 132.637 33.2226C133.282 33.2226 133.832 33.4493 134.285 33.9027C134.738 34.3562 134.965 34.9056 134.965 35.5509C134.965 36.1962 134.738 36.7455 134.285 37.199C133.832 37.6524 133.282 37.8792 132.637 37.8792Z" fill="black"/>
<path d="M119.99 53.1831C118.682 53.1831 117.487 52.8692 116.406 52.2413C115.342 51.596 114.496 50.7415 113.868 49.6776C113.24 48.5963 112.927 47.3929 112.927 46.0674C112.927 44.742 113.24 43.5473 113.868 42.4834C114.514 41.4021 115.377 40.5475 116.458 39.9197C117.557 39.2918 118.778 38.9779 120.121 38.9779C120.766 38.9779 121.385 39.0564 121.978 39.2133C122.571 39.3703 123.129 39.597 123.652 39.8935V34.6876L127.89 34.0335V53H123.705V51.9797C122.606 52.782 121.368 53.1831 119.99 53.1831ZM120.722 49.573C121.315 49.573 121.856 49.4858 122.344 49.3114C122.833 49.1195 123.269 48.8405 123.652 48.4742V43.6345C123.286 43.2857 122.85 43.0241 122.344 42.8497C121.839 42.6578 121.298 42.5619 120.722 42.5619C120.042 42.5619 119.423 42.7189 118.865 43.0328C118.324 43.3293 117.888 43.7479 117.557 44.2885C117.243 44.8117 117.086 45.4047 117.086 46.0674C117.086 46.7302 117.243 47.3319 117.557 47.8725C117.888 48.3957 118.324 48.8143 118.865 49.1282C119.423 49.4247 120.042 49.573 120.722 49.573Z" fill="black"/>
<path d="M102.646 53V39.161H106.884V40.5475C107.337 39.9895 107.869 39.5709 108.479 39.2918C109.09 38.9954 109.77 38.8471 110.52 38.8471C111.27 38.8645 111.802 38.9779 112.116 39.1872V42.8758C111.837 42.7363 111.523 42.6317 111.174 42.5619C110.825 42.4922 110.468 42.4573 110.101 42.4573C109.439 42.4573 108.819 42.6142 108.244 42.9282C107.686 43.2247 107.232 43.6519 106.884 44.21V53H102.646Z" fill="black"/>
<path d="M93.15 53.2616C91.7373 53.2616 90.4641 52.9477 89.3305 52.3198C88.1969 51.6745 87.2987 50.8112 86.636 49.7299C85.9732 48.6486 85.6418 47.4365 85.6418 46.0936C85.6418 44.7507 85.9732 43.5386 86.636 42.4573C87.2987 41.3585 88.1969 40.4952 89.3305 39.8674C90.4641 39.2221 91.7373 38.8994 93.15 38.8994C94.5626 38.8994 95.8358 39.2221 96.9694 39.8674C98.103 40.4952 99.0012 41.3585 99.6639 42.4573C100.327 43.5386 100.658 44.7507 100.658 46.0936C100.658 47.4365 100.327 48.6486 99.6639 49.7299C99.0012 50.8112 98.103 51.6745 96.9694 52.3198C95.8358 52.9477 94.5626 53.2616 93.15 53.2616ZM93.15 49.5991C93.7952 49.5991 94.3708 49.4422 94.8766 49.1282C95.3823 48.8143 95.7835 48.3957 96.0799 47.8725C96.3764 47.3319 96.5247 46.7389 96.5247 46.0936C96.5247 45.4309 96.3764 44.8379 96.0799 44.3147C95.7835 43.774 95.3736 43.3467 94.8504 43.0328C94.3446 42.7189 93.7778 42.5619 93.15 42.5619C92.5221 42.5619 91.9466 42.7189 91.4233 43.0328C90.9176 43.3467 90.5164 43.774 90.22 44.3147C89.9235 44.8379 89.7752 45.4309 89.7752 46.0936C89.7752 46.7389 89.9235 47.3319 90.22 47.8725C90.5164 48.3957 90.9176 48.8143 91.4233 49.1282C91.9466 49.4422 92.5221 49.5991 93.15 49.5991Z" fill="black"/>
<path d="M66.6541 53V34.6876H70.8921L79.2112 45.3088V34.6876H83.4492V53H79.4728L70.8921 41.9602V53H66.6541Z" fill="black"/>
<path d="M179.578 30.2616C178.165 30.2616 176.883 29.9477 175.732 29.3198C174.598 28.6745 173.7 27.8112 173.038 26.7299C172.375 25.6486 172.043 24.4365 172.043 23.0936C172.043 21.7507 172.357 20.5386 172.985 19.4573C173.631 18.376 174.503 17.5214 175.601 16.8935C176.7 16.2482 177.921 15.9256 179.264 15.9256C180.624 15.9256 181.828 16.257 182.874 16.9197C183.92 17.565 184.74 18.4545 185.333 19.5881C185.943 20.7217 186.249 22.021 186.249 23.486V24.5324H176.386C176.578 24.9685 176.831 25.3521 177.145 25.6835C177.476 26.0149 177.869 26.2765 178.322 26.4683C178.775 26.6427 179.264 26.7299 179.787 26.7299C180.363 26.7299 180.886 26.6427 181.357 26.4683C181.828 26.2765 182.229 26.0149 182.56 25.6835L185.359 28.1688C184.487 28.9013 183.589 29.4332 182.665 29.7646C181.758 30.0959 180.729 30.2616 179.578 30.2616ZM176.308 21.5763H182.089C181.95 21.1228 181.732 20.7392 181.435 20.4252C181.156 20.0939 180.825 19.841 180.441 19.6666C180.057 19.4747 179.639 19.3788 179.185 19.3788C178.714 19.3788 178.287 19.466 177.903 19.6404C177.52 19.8148 177.188 20.0677 176.909 20.3991C176.648 20.713 176.447 21.1054 176.308 21.5763Z" fill="black"/>
<path d="M155.708 30V11.6876L159.946 11.0335V17.129C161.027 16.3616 162.248 15.9779 163.608 15.9779C164.934 15.9779 166.128 16.3005 167.192 16.9458C168.256 17.5737 169.102 18.4283 169.73 19.5096C170.358 20.5735 170.672 21.7681 170.672 23.0936C170.672 24.4191 170.349 25.6225 169.704 26.7038C169.076 27.7676 168.213 28.6135 167.114 29.2413C166.033 29.8692 164.82 30.1831 163.477 30.1831C162.832 30.1831 162.204 30.1046 161.594 29.9477C160.983 29.7733 160.417 29.5291 159.893 29.2152V30H155.708ZM162.876 26.5991C163.573 26.5991 164.193 26.4509 164.733 26.1544C165.274 25.8405 165.701 25.4219 166.015 24.8987C166.346 24.358 166.512 23.7563 166.512 23.0936C166.512 22.4309 166.346 21.8379 166.015 21.3147C165.701 20.774 165.265 20.3554 164.707 20.059C164.166 19.745 163.556 19.5881 162.876 19.5881C162.283 19.5881 161.742 19.684 161.254 19.8758C160.765 20.0502 160.329 20.3206 159.946 20.6868V25.5265C160.312 25.8579 160.748 26.1195 161.254 26.3113C161.76 26.5032 162.3 26.5991 162.876 26.5991Z" fill="black"/>
<path d="M145.13 30.2616C144.049 30.2616 143.09 30.0261 142.253 29.5553C141.433 29.0844 140.788 28.4303 140.317 27.5932C139.846 26.7386 139.61 25.7707 139.61 24.6894V16.161H143.848V24.1138C143.848 24.8638 144.075 25.4742 144.529 25.9451C144.999 26.3985 145.61 26.6253 146.36 26.6253C146.9 26.6253 147.38 26.5293 147.799 26.3375C148.217 26.1457 148.566 25.8753 148.845 25.5265V16.161H153.083V30H148.845V29.0582C147.799 29.8605 146.56 30.2616 145.13 30.2616Z" fill="black"/>
<path d="M128.493 30V15.664H122.502V11.6876H138.983V15.664H132.992V30H128.493Z" fill="black"/>
<path d="M108.649 30V16.161H112.887V17.1028C113.934 16.3005 115.172 15.8994 116.602 15.8994C117.683 15.8994 118.634 16.1349 119.454 16.6058C120.291 17.0766 120.945 17.7307 121.416 18.5678C121.886 19.4049 122.122 20.3729 122.122 21.4716V30H117.884V22.0472C117.884 21.2798 117.657 20.6694 117.204 20.2159C116.75 19.7625 116.14 19.5357 115.372 19.5357C114.832 19.5357 114.352 19.6317 113.934 19.8235C113.532 20.0154 113.184 20.2857 112.887 20.6345V30H108.649Z" fill="black"/>
<path d="M90.4197 30L86.6526 16.161H90.6552L92.6957 24.297L95.181 16.161H98.6865L101.172 24.3231L103.186 16.161H107.136L103.343 30H99.2882L96.8814 21.9948L94.5008 30H90.4197Z" fill="black"/>
<path d="M75.7841 30.2878C74.4063 30.2878 73.1244 30.0523 71.9385 29.5814C70.7525 29.0931 69.7148 28.4216 68.8253 27.5671C67.9359 26.695 67.2383 25.6922 66.7325 24.5586C66.2442 23.4075 66 22.1692 66 20.8438C66 19.5183 66.2442 18.2887 66.7325 17.1551C67.2383 16.0041 67.9359 15.0012 68.8253 14.1466C69.7148 13.2746 70.7525 12.6032 71.9385 12.1323C73.1244 11.6439 74.4063 11.3998 75.7841 11.3998C77.1619 11.3998 78.4437 11.6439 79.6297 12.1323C80.8156 12.6032 81.8533 13.2746 82.7428 14.1466C83.6323 15.0012 84.3212 16.0041 84.8095 17.1551C85.3153 18.2887 85.5682 19.5183 85.5682 20.8438C85.5682 22.1692 85.3153 23.4075 84.8095 24.5586C84.3212 25.6922 83.6323 26.695 82.7428 27.5671C81.8533 28.4216 80.8156 29.0931 79.6297 29.5814C78.4437 30.0523 77.1619 30.2878 75.7841 30.2878ZM75.7841 26.1544C76.5166 26.1544 77.1968 26.0236 77.8246 25.762C78.4525 25.4829 78.9931 25.108 79.4466 24.6371C79.9175 24.1662 80.2837 23.6081 80.5453 22.9628C80.8069 22.3 80.9377 21.5937 80.9377 20.8438C80.9377 20.0764 80.8069 19.3701 80.5453 18.7248C80.2837 18.0795 79.9175 17.5214 79.4466 17.0505C78.9931 16.5796 78.4525 16.2133 77.8246 15.9517C77.1968 15.6727 76.5166 15.5332 75.7841 15.5332C75.0516 15.5332 74.3714 15.6727 73.7435 15.9517C73.1157 16.2133 72.5663 16.5796 72.0954 17.0505C71.642 17.5214 71.2844 18.0795 71.0228 18.7248C70.7612 19.3701 70.6304 20.0764 70.6304 20.8438C70.6304 21.5937 70.7612 22.3 71.0228 22.9628C71.2844 23.6081 71.642 24.1662 72.0954 24.6371C72.5663 25.108 73.1157 25.4829 73.7435 25.762C74.3714 26.0236 75.0516 26.1544 75.7841 26.1544Z" fill="black"/>
<path d="M6 32.9996C6.00012 25.6061 9.21624 18.9571 14.3096 14.3873L20.9873 21.8306C17.9187 24.5839 16.0001 28.5644 16 32.9996C16 41.2838 22.7157 47.9996 31 47.9996C37.5204 47.9996 43.0817 43.837 45.1455 38.0084L54.5713 41.3453C51.1381 51.0418 41.8882 57.9996 31 57.9996C17.1929 57.9996 6 46.8067 6 32.9996Z" fill="black"/>
<path d="M56 33H46C46 26.469 41.8258 20.9138 36 18.8545V40H26V8H31C36.6282 8 41.8216 9.86039 46 12.999V8L56 6V33Z" fill="black"/>
</svg>
