<svg width="64" height="64" viewBox="0 0 64 64" fill="none" xmlns="http://www.w3.org/2000/svg">
<path d="M7 32.9996C7.00012 25.6061 10.2162 18.9571 15.3096 14.3873L21.9873 21.8306C18.9187 24.5839 17.0001 28.5644 17 32.9996C17 41.2838 23.7157 47.9996 32 47.9996C38.5204 47.9996 44.0817 43.837 46.1455 38.0084L55.5713 41.3453C52.1381 51.0418 42.8882 57.9996 32 57.9996C18.1929 57.9996 7 46.8067 7 32.9996Z" fill="#FF5722"/>
<path d="M57 33H47C47 26.469 42.8258 20.9138 37 18.8545V40H27V8H32C37.6282 8 42.8216 9.86039 47 12.999V8L57 6V33Z" fill="#FF5722"/>
</svg>
